# xmcd
#
# Track frame offsets:
#	150
#	15329
#	30047
#	45833
#	61369
#	76152
#	91535
#	105662
#	124263
#	139546
#	156468
#	171595
#	189396
#	204953
#	223288
#
# Disc length: 3218 seconds
#
# Revision: 1
# Processed by: cddbd v1.4PL0 Copyright (c) Steve Scherf et al.
# Submitted via: audiograbber 1.80
#
DISCID=b70c900f
DTITLE=Various Artist - Hott Country 086
DYEAR=1900
DGENRE=
TTITLE0=Adam Gregory and Billy Ray Cyrus - When I LeaveThis House
TTITLE1=Tanya Tucker - Old Weakness
TTITLE2=Mark Chesnutt - I'm In love With A Married Woman
TTITLE3=Trick Pony - A Boy Like You
TTITLE4=Sammy Kershaw - I Want My mMoney Back
TTITLE5=Aaron Lines - Living Out Loud
TTITLE6=Rascal Flatts - Love You Out Loud
TTITLE7=Brett James - After All
TTITLE8=Doug Stone - P.O.W. 369
TTITLE9=Kellie Coffey - Whatever It Takes
TTITLE10=Pam Tillis - So Wrong
TTITLE11=Willie Nelson Feat John Bon Jovie and richie Sambora - Always On My Mind
TTITLE12=Danni Leigh - House Of Pain
TTITLE13=Sara Evans - Backseat Of A Greyhound Bus
TTITLE14=Dayna Manning - I'm The Girl
EXTD=
EXTT0=
EXTT1=
EXTT2=
EXTT3=
EXTT4=
EXTT5=
EXTT6=
EXTT7=
EXTT8=
EXTT9=
EXTT10=
EXTT11=
EXTT12=
EXTT13=
EXTT14=
PLAYORDER=
